<svg x="0" y="0" width="300" height="300" version="1.1" xmlns="http://www.w3.org/2000/svg" xmlns:xlink="http://www.w3.org/1999/xlink"><defs><linearGradient x1="50.76706" y1="136.45271" x2="50.76706" y2="163.54729" gradientUnits="userSpaceOnUse" id="color-1"><stop offset="0" stop-color="#0d1b25"></stop><stop offset="1" stop-color="#142938"></stop></linearGradient></defs><g data-paper-data="{&quot;description&quot;:&quot;Logo for MakerChen\n==================\n\nThis logo was generated by MarkMaker and is composed of elements designed by others.\n\nThe font is Exo 2 Bold designed by Natanael Gama and released under the OFL license via Google Fonts: https://www.google.com/fonts/specimen/Exo 2. The font includes this copyright statement: Copyright (c) 2013, Natanael Gama (www.ndiscovered.com . info(at)ndiscovered.com), with Reserved Font Name Exo. This Font Software is licensed under the SIL Open Font License, Version 1.1.\n\nMarkMaker uses semantic data from the Princeton University WordNet database http://wordnet.princeton.edu and font descriptions from Google Fonts https://www.google.com/fonts.\n\nThis design is inspired by designs that past users of MarkMaker have liked. As a result, it may be visually similar to past or future designs generated by the system. There is no guarantee that it is unique, original, or suitable in any way for use as a logo.\n\n&quot;}" fill="none" stroke="none" stroke-width="none" stroke-linecap="butt" stroke-linejoin="miter" stroke-miterlimit="10" stroke-dasharray="" stroke-dashoffset="0" font-family="sans-serif" font-weight="normal" font-size="12" text-anchor="start" mix-blend-mode="normal"><path d="M30,150c0,-66.27417 53.72583,-120 120,-120c66.27417,0 120,53.72583 120,120c0,66.27417 -53.72583,120 -120,120c-66.27417,0 -120,-53.72583 -120,-120z" fill="none" stroke="#11222e" stroke-width="2.1"></path><g data-paper-data="{&quot;elementType&quot;:&quot;logo&quot;}" fill="url(#color-1)" stroke-width="1"><g data-paper-data="{&quot;elementType&quot;:&quot;text&quot;}"><g data-paper-data="{&quot;baseline&quot;:70.2,&quot;elementType&quot;:&quot;row&quot;}"><g data-paper-data="{&quot;baselineProportion&quot;:0.9831932773109243,&quot;fontSize&quot;:100,&quot;baseline&quot;:70.2,&quot;elementType&quot;:&quot;word&quot;}"><path d="M72.28334,136.90808l5.5783,0c1.39141,0 2.11242,0.721 2.16301,2.16301l1.02458,24.02082l-5.46445,0l-0.87279,-21.66807l-0.64511,0l-3.94655,16.20362c-0.25298,1.23962 -1.03723,1.85943 -2.35275,1.85943l-3.79476,0c-1.31552,0 -2.09977,-0.61981 -2.35275,-1.85943l-3.9845,-16.20362l-0.64511,0l-0.75895,21.66807l-5.46445,0l0.94869,-24.02082c0.0759,-1.44201 0.7969,-2.16301 2.16301,-2.16301l5.5783,0c1.23962,0 1.99857,0.61981 2.27686,1.85943l3.1876,13.05397c0.20239,0.83485 0.43007,2.06182 0.68306,3.68092l0.49332,0c0.0253,-0.12649 0.12017,-0.64511 0.28461,-1.55585c0.16444,-0.91074 0.29726,-1.6191 0.39845,-2.12506l3.14965,-13.05397c0.30358,-1.23962 1.08783,-1.85943 2.35275,-1.85943z" data-paper-data="{&quot;elementType&quot;:&quot;letter&quot;,&quot;baseline&quot;:69,&quot;baselineProportion&quot;:1,&quot;fontSize&quot;:100}"></path><path d="M85.98242,148.55799l-0.53127,-3.79476c3.36469,-0.60716 6.61553,-0.91074 9.75253,-0.91074c2.52984,0 4.38927,0.51229 5.5783,1.53688c1.18902,1.02458 1.78354,2.8018 1.78354,5.33164l0,12.37091l-4.43987,0l-0.56921,-2.84607c-1.87208,2.20096 -4.17423,3.30144 -6.90646,3.30144c-1.79619,0 -3.26349,-0.47434 -4.40192,-1.42303c-1.13843,-0.94869 -1.70764,-2.27053 -1.70764,-3.96552l0,-1.89738c0,-1.49261 0.50597,-2.65633 1.5179,-3.49118c1.01194,-0.83485 2.416,-1.25227 4.21218,-1.25227l6.67878,0l0,-0.83485c-0.0253,-0.96134 -0.24666,-1.60645 -0.66408,-1.93533c-0.41742,-0.32888 -1.22065,-0.49332 -2.40967,-0.49332c-2.07447,0 -4.7055,0.10119 -7.8931,0.30358 M90.08076,156.67878l0,0.721c0,1.29022 0.73365,1.93533 2.20096,1.93533c1.5179,0 3.07375,-0.60716 4.66755,-1.82148l0,-2.61838l-5.04703,0c-1.21432,0.0253 -1.82148,0.61981 -1.82148,1.78354z" data-paper-data="{&quot;elementType&quot;:&quot;letter&quot;,&quot;baseline&quot;:50.7,&quot;baselineProportion&quot;:0.9768786127167629,&quot;fontSize&quot;:100}"></path><path d="M114.13953,154.40192l-1.78354,0c0.17709,1.13843 0.26563,2.07447 0.26563,2.80812l0,5.88188l-5.61624,0l0,-26.56331l5.61624,0l0,10.96685c0,1.23962 -0.08854,2.37805 -0.26563,3.41528l1.74559,0l4.62961,-6.52699l6.2993,0l-4.85729,6.48904c-0.40477,0.68306 -0.98664,1.27757 -1.74559,1.78354l0,0.0759c0.63246,0.43007 1.21432,1.10048 1.74559,2.01122l5.5024,8.34847l-6.2993,0l-5.23677,-8.69z" data-paper-data="{&quot;elementType&quot;:&quot;letter&quot;,&quot;baseline&quot;:70,&quot;baselineProportion&quot;:1,&quot;fontSize&quot;:100}"></path><path d="M139.33673,155.61624l-6.75467,0c0.17709,1.36611 0.58819,2.28318 1.2333,2.7512c0.64511,0.46802 1.71397,0.70203 3.20657,0.70203c1.99857,0 4.32603,-0.13914 6.98236,-0.41742l0.53127,3.49118c-1.94798,0.93604 -4.66755,1.40406 -8.15873,1.40406c-3.51648,0 -6.02102,-0.75895 -7.51362,-2.27686c-1.49261,-1.5179 -2.23891,-4.02244 -2.23891,-7.51362c0,-3.66827 0.72733,-6.23605 2.18199,-7.70336c1.45466,-1.46731 3.90228,-2.20096 7.34286,-2.20096c3.1117,0 5.36326,0.53759 6.75467,1.61277c1.39141,1.07518 2.09977,2.71325 2.12506,4.91421c0,1.74559 -0.44905,3.05478 -1.34714,3.92758c-0.89809,0.87279 -2.34643,1.30919 -4.345,1.30919 M132.46821,152.23891l5.31266,0c0.68306,0 1.14475,-0.16444 1.38509,-0.49332c0.24033,-0.32888 0.3605,-0.80955 0.3605,-1.44201c0,-0.88544 -0.22769,-1.49893 -0.68306,-1.84046c-0.45537,-0.34153 -1.29022,-0.51229 -2.50454,-0.51229c-1.44201,0 -2.42865,0.28461 -2.95991,0.85382c-0.53127,0.56921 -0.83485,1.71397 -0.91074,3.43426z" data-paper-data="{&quot;elementType&quot;:&quot;letter&quot;,&quot;baseline&quot;:50.7,&quot;baselineProportion&quot;:0.9768786127167629,&quot;fontSize&quot;:100}"></path><path d="M162.10528,143.85249l-0.56921,5.19882l-1.5179,0c-1.23962,0 -3.14965,0.43007 -5.73009,1.29022l0,12.75039l-5.61624,0l0,-18.70816l4.36397,0l0.49332,2.73223c2.55514,-2.17566 5.08498,-3.26349 7.58952,-3.26349l0.98664,0z" data-paper-data="{&quot;elementType&quot;:&quot;letter&quot;,&quot;baseline&quot;:50.7,&quot;baselineProportion&quot;:1,&quot;fontSize&quot;:100}"></path><path d="M183.16619,158.19668l0.49332,4.28808c-2.27686,0.70835 -5.07233,1.06253 -8.38642,1.06253c-4.04774,0 -6.89381,-1.01194 -8.53821,-3.03581c-1.6444,-2.02387 -2.46659,-5.5277 -2.46659,-10.51148c0,-4.98378 0.8222,-8.48761 2.46659,-10.51148c1.6444,-2.02387 4.49046,-3.03581 8.53821,-3.03581c2.93461,0 5.553,0.29093 7.85515,0.87279l-0.49332,4.32603c-2.04917,-0.12649 -4.50311,-0.18974 -7.36183,-0.18974c-1.89738,0 -3.19392,0.60084 -3.88963,1.80251c-0.69571,1.20167 -1.04356,3.44691 -1.04356,6.7357c0,3.28879 0.34785,5.53402 1.04356,6.7357c0.69571,1.20167 1.99225,1.80251 3.88963,1.80251c3.51648,0 6.14751,-0.11384 7.8931,-0.34153z" data-paper-data="{&quot;elementType&quot;:&quot;letter&quot;,&quot;baseline&quot;:70.2,&quot;baselineProportion&quot;:0.9831932773109243,&quot;fontSize&quot;:100}"></path><path d="M192.69104,136.52861l0,6.48904c0,1.29022 -0.11384,2.59309 -0.34153,3.9086c2.60573,-2.04917 5.16087,-3.07375 7.66541,-3.07375c1.69499,0 2.99153,0.44272 3.88963,1.32817c0.89809,0.88544 1.34714,2.17566 1.34714,3.87065l0,14.04061l-5.5783,0l0,-12.29502c0,-0.83485 -0.13282,-1.41039 -0.39845,-1.72662c-0.26563,-0.31623 -0.73998,-0.47434 -1.42303,-0.47434c-1.34081,0 -3.07375,0.56921 -5.19882,1.70764l0,12.78834l-5.61624,0l0,-26.56331l5.65419,0z" data-paper-data="{&quot;elementType&quot;:&quot;letter&quot;,&quot;baseline&quot;:70,&quot;baselineProportion&quot;:1,&quot;fontSize&quot;:100}"></path><path d="M221.68299,155.61624l-6.75467,0c0.17709,1.36611 0.58819,2.28318 1.2333,2.7512c0.64511,0.46802 1.71397,0.70203 3.20657,0.70203c1.99857,0 4.32603,-0.13914 6.98236,-0.41742l0.53127,3.49118c-1.94798,0.93604 -4.66755,1.40406 -8.15873,1.40406c-3.51648,0 -6.02102,-0.75895 -7.51362,-2.27686c-1.49261,-1.5179 -2.23891,-4.02244 -2.23891,-7.51362c0,-3.66827 0.72733,-6.23605 2.18199,-7.70336c1.45466,-1.46731 3.90228,-2.20096 7.34286,-2.20096c3.1117,0 5.36326,0.53759 6.75467,1.61277c1.39141,1.07518 2.09977,2.71325 2.12506,4.91421c0,1.74559 -0.44905,3.05478 -1.34714,3.92758c-0.89809,0.87279 -2.34643,1.30919 -4.345,1.30919 M214.81448,152.23891l5.31266,0c0.68306,0 1.14475,-0.16444 1.38509,-0.49332c0.24033,-0.32888 0.3605,-0.80955 0.3605,-1.44201c0,-0.88544 -0.22769,-1.49893 -0.68306,-1.84046c-0.45537,-0.34153 -1.29022,-0.51229 -2.50454,-0.51229c-1.44201,0 -2.42865,0.28461 -2.95991,0.85382c-0.53127,0.56921 -0.83485,1.71397 -0.91074,3.43426z" data-paper-data="{&quot;elementType&quot;:&quot;letter&quot;,&quot;baseline&quot;:50.7,&quot;baselineProportion&quot;:0.9768786127167629,&quot;fontSize&quot;:100}"></path><path d="M235.57181,144.38376l0.41742,2.77017c2.70693,-2.20096 5.37591,-3.30144 8.00694,-3.30144c1.69499,0 2.99153,0.44272 3.88963,1.32817c0.89809,0.88544 1.34714,2.17566 1.34714,3.87065l0,14.04061l-5.5783,0l0,-12.29502c0,-0.83485 -0.13282,-1.41039 -0.39845,-1.72662c-0.26563,-0.31623 -0.73998,-0.47434 -1.42303,-0.47434c-1.18902,0 -2.92196,0.56921 -5.19882,1.70764l0,12.78834l-5.61624,0l0,-18.70816l4.55371,0z" data-paper-data="{&quot;elementType&quot;:&quot;letter&quot;,&quot;baseline&quot;:50.7,&quot;baselineProportion&quot;:1,&quot;fontSize&quot;:100}"></path></g></g></g></g></g></svg>